<svg width="143" height="41" viewBox="0 0 143 41" fill="none" xmlns="http://www.w3.org/2000/svg">
<path d="M15.9554 39.8818C13.3212 39.8818 10.0096 37.9436 8.65489 35.7073L2.18226 24.6745C0.902788 22.3636 0.902788 18.6363 2.18226 16.3254L8.57963 5.29271C9.93437 2.9818 13.1707 1.11816 15.8802 1.11816H28.7502C31.3844 1.11816 34.6959 3.05635 36.0507 5.29271L42.4481 16.3254C43.8028 18.6363 43.8028 22.3636 42.4481 24.6745L36.1259 35.7073C34.7712 38.0182 31.5349 39.8818 28.8254 39.8818H15.9554Z" fill="url(#paint0_linear_91_2)"/>
<path opacity="0.5" d="M15.9554 39.8818C13.3212 39.8818 10.0096 37.9436 8.65489 35.7073L2.18226 24.6745C0.902788 22.3636 0.902788 18.6363 2.18226 16.3254L8.57963 5.29271C9.93437 2.9818 13.1707 1.11816 15.8802 1.11816H28.7502C31.3844 1.11816 34.6959 3.05635 36.0507 5.29271L42.4481 16.3254C43.8028 18.6363 43.8028 22.3636 42.4481 24.6745L36.1259 35.7073C34.7712 38.0182 31.5349 39.8818 28.8254 39.8818H15.9554Z" fill="url(#paint1_linear_91_2)"/>
<path d="M30.9335 8.49793C30.1809 7.23066 28.2993 6.6343 27.0198 7.4543C24.1598 9.46702 23.7835 9.76521 20.6225 11.7779C20.6225 10.5107 20.6225 8.64702 20.6225 7.75248C20.6225 4.62157 14.752 4.62157 14.752 7.75248C14.752 10.8834 14.752 14.0143 14.752 17.0707C14.752 19.0834 17.3862 20.7234 19.1925 19.4561C23.4825 16.4743 25.5146 15.207 29.8046 12.2252C31.0841 11.4052 31.7614 9.9143 30.9335 8.49793Z" fill="#08F7C9"/>
<path d="M30.9335 32.5019C30.1809 33.7691 28.2993 34.3655 27.0198 33.5455C24.1598 31.5328 23.7835 31.2346 20.6225 29.2219C20.6225 30.4891 20.6225 31.4582 20.6225 32.7255C20.6225 36.3037 14.752 36.3037 14.752 32.7255C14.752 30.0419 14.752 26.9109 14.752 23.8546C14.752 21.8419 17.3862 20.2019 19.1925 21.4691C23.4825 24.4509 25.5146 25.7182 29.8046 28.7C31.0841 29.5946 31.7614 31.16 30.9335 32.5019Z" fill="#FCCC00"/>
<path d="M2.93443 17.2945L9.3318 6.48543C10.6865 4.24907 13.9228 2.45998 16.5571 2.45998H29.3518C31.986 2.45998 35.2223 4.24907 36.5771 6.48543L42.8992 17.22C42.8239 16.9963 42.6734 16.6982 42.5229 16.4745L36.0502 5.59088C34.6955 3.35452 31.4592 1.56543 28.825 1.56543H16.0302C13.396 1.56543 10.1597 3.35452 8.80496 5.59088L2.48285 16.4745C1.12811 18.7109 1.12811 22.4382 2.48285 24.6745L2.55811 24.8236C1.57969 22.5872 1.73022 19.3072 2.93443 17.2945Z" fill="#FFB55C"/>
<path d="M59.382 15.5058L66.9836 24.5258H62.5431L57.0489 17.9658C56.8983 18.1149 56.7478 18.3385 56.5973 18.4876C56.4467 18.6367 56.2962 18.8604 56.0704 19.0095V24.4513H52.6836V7.604H56.0704V14.0149L61.8657 7.604H66.4568L59.382 15.5058Z" fill="black"/>
<path d="M75.9404 24.7493C74.8867 24.7493 73.7578 24.5257 72.7041 24.1529C71.7257 23.7057 70.8225 23.1093 69.9946 22.3638C69.1667 21.6184 68.4894 20.7238 68.0378 19.6057C67.5109 18.562 67.2852 17.3693 67.2852 16.0275C67.2852 14.9093 67.5109 13.7911 67.9625 12.7475C68.4141 11.7038 69.0162 10.8093 69.7688 9.9893C70.5215 9.1693 71.4999 8.57294 72.5536 8.05112C73.6073 7.60385 74.8115 7.30566 76.0157 7.30566C77.1446 7.30566 78.1983 7.5293 79.252 7.97657C80.3057 8.42385 81.2088 9.02021 82.0367 9.76566C82.8646 10.5111 83.4667 11.4802 83.9936 12.5238C84.4452 13.5675 84.7462 14.7602 84.7462 16.0275C84.7462 17.1457 84.5204 18.1893 84.0688 19.2329C83.6173 20.2766 83.0152 21.1711 82.2625 21.9911C81.5099 22.8111 80.5315 23.4075 79.4778 23.9293C78.4241 24.5257 77.2199 24.7493 75.9404 24.7493ZM75.9404 10.8093C75.1878 10.8093 74.5104 10.9584 73.9083 11.2566C73.2309 11.5548 72.7041 11.9275 72.1773 12.3748C71.7257 12.822 71.2741 13.4184 71.0483 14.0893C70.7473 14.7602 70.5967 15.4311 70.5967 16.1766C70.5967 16.922 70.7473 17.5929 71.0483 18.1893C71.3494 18.8602 71.7257 19.382 72.1773 19.8293C72.6288 20.2766 73.2309 20.6493 73.833 20.9475C74.5104 21.2457 75.1878 21.3948 75.8652 21.3948C76.6178 21.3948 77.2952 21.2457 77.8973 20.9475C78.5746 20.6493 79.1015 20.2766 79.553 19.8293C80.0046 19.382 80.3809 18.7857 80.682 18.1893C80.983 17.5184 81.1336 16.8475 81.1336 16.1766C81.1336 15.4311 80.983 14.7602 80.682 14.0893C80.3809 13.4184 80.0046 12.8966 79.553 12.3748C79.1015 11.9275 78.4994 11.4802 77.8973 11.2566C77.3704 10.9584 76.6931 10.8093 75.9404 10.8093Z" fill="black"/>
<path d="M103.035 24.5258H98.8958L94.2295 18.0404H92.1974V24.5258H88.8105V7.604H95.7348C96.4874 7.604 97.0895 7.7531 97.7669 8.05128C98.369 8.34946 98.9711 8.72219 99.4227 9.16946C99.8742 9.61673 100.251 10.2131 100.552 10.8095C100.853 11.4058 101.003 12.1513 101.003 12.8222C101.003 13.8658 100.702 14.8349 100.175 15.6549C99.6484 16.4749 98.8958 17.1458 97.9926 17.5185L103.035 24.5258ZM95.0574 14.7604C95.8853 14.7604 96.5627 14.5367 96.939 14.164C97.3153 13.7913 97.5411 13.344 97.5411 12.8222C97.5411 12.3004 97.3153 11.8531 96.939 11.4804C96.5627 11.1076 95.8853 10.9585 95.0574 10.9585H92.1221V14.7604H95.0574Z" fill="black"/>
<path d="M109.809 24.5258H106.422V7.604H113.346C114.099 7.604 114.776 7.7531 115.378 8.05128C115.98 8.34946 116.582 8.72219 117.034 9.16946C117.486 9.61673 117.862 10.2131 118.163 10.8095C118.464 11.4058 118.615 12.1513 118.615 12.8222C118.615 13.5676 118.464 14.2385 118.163 14.9095C117.862 15.5804 117.486 16.1022 117.034 16.5495C116.582 16.9967 115.98 17.3695 115.378 17.6676C114.701 17.9658 114.023 18.1149 113.346 18.1149H109.809V24.5258ZM109.809 14.7604H112.669C113.497 14.7604 114.174 14.5367 114.55 14.164C114.927 13.7913 115.152 13.344 115.152 12.8222C115.152 12.3004 114.927 11.8531 114.55 11.4804C114.174 11.1076 113.497 10.9585 112.669 10.9585H109.809V14.7604Z" fill="black"/>
<path d="M122.152 24.5258V7.604H125.539V24.5258H122.152Z" fill="black"/>
<path d="M133.817 10.9585V14.3876H139.386V17.7422H133.817V21.1713H141.418V24.5258H130.43V7.604H141.418V10.9585H133.817Z" fill="black"/>
<path d="M52.6836 28.4766H55.2425V29.0729H53.4362V30.1911H54.9415V30.7875H53.4362V31.9802H55.3178V32.5766H52.6836V28.4766Z" fill="black"/>
<path d="M57.2745 29.5951H57.9519V30.0423C58.1024 29.7441 58.4034 29.5205 58.855 29.5205C59.2313 29.5205 59.5324 29.6696 59.6829 30.0423C59.9087 29.6696 60.285 29.5205 60.6613 29.5205C61.1882 29.5205 61.6397 29.8187 61.6397 30.6387V32.5023H60.9624V30.7132C60.9624 30.266 60.8119 30.1169 60.4355 30.1169C60.0592 30.1169 59.7582 30.3405 59.7582 30.7878V32.5769H59.0808V30.7878C59.0808 30.3405 58.855 30.1914 58.554 30.1914C58.1776 30.1914 57.8766 30.4151 57.8766 30.8623V32.6514H57.1992L57.2745 29.5951Z" fill="black"/>
<path d="M63.748 29.5951H64.4254V30.0423C64.5759 29.7441 64.9523 29.5205 65.4038 29.5205C66.1565 29.5205 66.7586 30.0423 66.7586 31.0114V31.086C66.7586 32.0551 66.2317 32.5769 65.4038 32.5769C64.9523 32.5769 64.5759 32.3532 64.4254 32.0551V33.546H63.748V29.5951ZM66.0059 31.086C66.0059 30.4151 65.6296 30.0423 65.178 30.0423C64.7265 30.0423 64.3502 30.3405 64.3502 31.0114V31.086C64.3502 31.7569 64.6512 32.0551 65.178 32.0551C65.7049 32.0551 66.0059 31.6823 66.0059 31.086Z" fill="black"/>
<path d="M68.4141 31.086C68.4141 30.1169 69.0914 29.5205 69.9193 29.5205C70.8225 29.5205 71.4246 30.1169 71.4246 31.0114V31.086C71.4246 31.9805 70.7472 32.5769 69.9193 32.5769C69.0914 32.5769 68.4141 31.9805 68.4141 31.086ZM70.7472 31.086C70.7472 30.4151 70.4462 30.0423 69.9193 30.0423C69.3925 30.0423 69.0914 30.4151 69.0914 31.0114V31.086C69.0914 31.6823 69.3925 32.0551 69.9193 32.0551C70.4462 32.0551 70.7472 31.6823 70.7472 31.086Z" fill="black"/>
<path d="M72.9297 29.5947H73.6823L74.2844 31.7565L74.8865 29.5947H75.4886L76.0907 31.7565L76.6928 29.5947H77.3702L76.4671 32.5765H75.7897L75.1876 30.5638L74.5855 32.5765H73.9081L72.9297 29.5947Z" fill="black"/>
<path d="M78.875 31.086C78.875 30.1169 79.4771 29.5205 80.3803 29.5205C81.1329 29.5205 81.8103 29.9678 81.8103 31.0114V31.2351H79.6276C79.6276 31.7569 79.9287 32.1296 80.4555 32.1296C80.9071 32.1296 81.0576 31.9805 81.1329 31.6823H81.8103C81.735 32.2787 81.2082 32.6514 80.4555 32.6514C79.4771 32.5769 78.875 32.0551 78.875 31.086ZM81.0576 30.7878C81.0576 30.266 80.7566 30.0423 80.305 30.0423C79.8534 30.0423 79.6276 30.3405 79.5524 30.7878H81.0576Z" fill="black"/>
<path d="M83.6172 29.5951H84.2946V30.1169C84.4451 29.7441 84.7461 29.5205 85.273 29.5205V30.1914C84.6709 30.1914 84.2946 30.4151 84.2946 31.0114V32.5769H83.6172V29.5951Z" fill="black"/>
<path d="M90.7668 30.7875L89.4121 28.4766H90.24L91.1432 30.1166L92.0463 28.4766H92.799L91.5195 30.7875V32.502H90.7668V30.7875Z" fill="black"/>
<path d="M93.9277 31.086C93.9277 30.1169 94.6051 29.5205 95.433 29.5205C96.3362 29.5205 96.9383 30.1169 96.9383 31.0114V31.086C96.9383 31.9805 96.2609 32.5769 95.433 32.5769C94.6051 32.5769 93.9277 31.9805 93.9277 31.086ZM96.2609 31.086C96.2609 30.4151 95.9598 30.0423 95.433 30.0423C94.9062 30.0423 94.6051 30.4151 94.6051 31.0114V31.086C94.6051 31.6823 94.9062 32.0551 95.433 32.0551C95.9598 32.0551 96.2609 31.6823 96.2609 31.086Z" fill="black"/>
<path d="M98.8203 31.4584V29.5947H99.4977V31.3838C99.4977 31.8311 99.6482 32.0547 100.1 32.0547C100.476 32.0547 100.777 31.8311 100.777 31.3838V29.5947H101.455V32.5765H100.777V32.0547C100.627 32.3529 100.326 32.5765 99.7987 32.5765C99.2719 32.5765 98.8203 32.2784 98.8203 31.4584Z" fill="black"/>
<path d="M103.561 29.5951H104.238V30.1169C104.388 29.7441 104.689 29.5205 105.216 29.5205V30.1914C104.614 30.1914 104.238 30.4151 104.238 31.0114V32.5769H103.561V29.5951Z" fill="black"/>
<path d="M109.733 28.4766H111.163C111.991 28.4766 112.518 28.7747 112.518 29.5202C112.518 29.8929 112.368 30.2657 111.841 30.4147C112.368 30.5638 112.669 30.862 112.669 31.3838C112.669 32.1293 112.142 32.502 111.239 32.502H109.658L109.733 28.4766ZM111.088 30.1911C111.615 30.1911 111.766 30.042 111.766 29.5947C111.766 29.222 111.54 29.0729 111.088 29.0729H110.486V30.2657L111.088 30.1911ZM111.239 31.9802C111.766 31.9802 111.991 31.7566 111.991 31.3093C111.991 30.862 111.766 30.7129 111.163 30.7129H110.486V31.9802H111.239Z" fill="black"/>
<path d="M114.625 31.4584V29.5947H115.302V31.3838C115.302 31.8311 115.453 32.0547 115.904 32.0547C116.281 32.0547 116.582 31.8311 116.582 31.3838V29.5947H117.259V32.5765H116.582V32.0547C116.431 32.3529 116.13 32.5765 115.603 32.5765C115.001 32.5765 114.625 32.2784 114.625 31.4584Z" fill="black"/>
<path d="M119.066 31.6078H119.744C119.744 31.906 119.894 32.0551 120.346 32.0551C120.722 32.0551 120.873 31.906 120.873 31.6823C120.873 31.4587 120.647 31.3841 120.271 31.3096C119.518 31.1605 119.217 30.9369 119.217 30.4151C119.217 29.8187 119.744 29.5205 120.346 29.5205C120.948 29.5205 121.475 29.7441 121.55 30.4151H120.948C120.873 30.1169 120.722 30.0423 120.421 30.0423C120.12 30.0423 119.97 30.1914 119.97 30.4151C119.97 30.6387 120.12 30.7132 120.572 30.7878C121.249 30.8623 121.701 31.086 121.701 31.6823C121.701 32.2787 121.249 32.6514 120.496 32.6514C119.593 32.5769 119.142 32.2787 119.066 31.6078Z" fill="black"/>
<path d="M123.355 28.7004C123.355 28.4767 123.506 28.3276 123.732 28.3276C123.958 28.3276 124.108 28.4767 124.108 28.7004C124.108 28.924 123.958 29.0731 123.732 29.0731C123.506 29.0731 123.355 28.924 123.355 28.7004ZM123.431 29.5949H124.108V32.5767H123.431C123.431 32.5022 123.431 29.5949 123.431 29.5949Z" fill="black"/>
<path d="M126.215 29.5951H126.892V30.0423C127.043 29.7441 127.344 29.5205 127.871 29.5205C128.473 29.5205 128.924 29.8932 128.924 30.7132V32.5769H128.247V30.7878C128.247 30.3405 128.096 30.1169 127.645 30.1169C127.269 30.1169 126.967 30.3405 126.967 30.7878V32.5023H126.29L126.215 29.5951Z" fill="black"/>
<path d="M130.732 31.086C130.732 30.1169 131.335 29.5205 132.238 29.5205C132.99 29.5205 133.668 29.9678 133.668 31.0114V31.2351H131.485C131.485 31.7569 131.786 32.1296 132.313 32.1296C132.765 32.1296 132.915 31.9805 132.99 31.6823H133.668C133.592 32.2787 133.066 32.6514 132.313 32.6514C131.335 32.5769 130.732 32.0551 130.732 31.086ZM132.915 30.7878C132.915 30.266 132.614 30.0423 132.162 30.0423C131.711 30.0423 131.485 30.3405 131.41 30.7878H132.915Z" fill="black"/>
<path d="M135.248 31.6078H135.925C135.925 31.906 136.076 32.0551 136.528 32.0551C136.904 32.0551 137.054 31.906 137.054 31.6823C137.054 31.4587 136.829 31.3841 136.452 31.3096C135.7 31.1605 135.399 30.9369 135.399 30.4151C135.399 29.8187 135.925 29.5205 136.528 29.5205C137.13 29.5205 137.656 29.7441 137.732 30.4151H136.979C136.904 30.1169 136.753 30.0423 136.452 30.0423C136.151 30.0423 136.001 30.1914 136.001 30.4151C136.001 30.6387 136.151 30.7132 136.603 30.7878C137.28 30.8623 137.732 31.086 137.732 31.6823C137.732 32.2787 137.28 32.6514 136.528 32.6514C135.775 32.5769 135.323 32.2787 135.248 31.6078Z" fill="black"/>
<path d="M139.387 31.6078H140.064C140.064 31.906 140.215 32.0551 140.666 32.0551C141.043 32.0551 141.193 31.906 141.193 31.6823C141.193 31.4587 140.967 31.3841 140.591 31.3096C139.838 31.1605 139.537 30.9369 139.537 30.4151C139.537 29.8187 140.064 29.5205 140.666 29.5205C141.268 29.5205 141.795 29.7441 141.87 30.4151H141.268C141.193 30.1169 141.043 30.0423 140.741 30.0423C140.44 30.0423 140.29 30.1914 140.29 30.4151C140.29 30.6387 140.44 30.7132 140.892 30.7878C141.569 30.8623 142.021 31.086 142.021 31.6823C142.021 32.2787 141.569 32.6514 140.817 32.6514C139.838 32.5769 139.387 32.2787 139.387 31.6078Z" fill="black"/>
<defs>
<linearGradient id="paint0_linear_91_2" x1="3.32483" y1="-3.86483" x2="29.8391" y2="30.6985" gradientUnits="userSpaceOnUse">
<stop stop-color="#F7931E"/>
<stop offset="0.692" stop-color="#F15A24"/>
<stop offset="0.9872" stop-color="#CE4624"/>
</linearGradient>
<linearGradient id="paint1_linear_91_2" x1="34.7541" y1="36.8455" x2="21.4239" y2="18.9006" gradientUnits="userSpaceOnUse">
<stop stop-color="white"/>
<stop offset="0.0969" stop-color="#FCDDD1" stop-opacity="0.9031"/>
<stop offset="0.2099" stop-color="#F9BAA4" stop-opacity="0.7901"/>
<stop offset="0.3273" stop-color="#F79D7C" stop-opacity="0.6727"/>
<stop offset="0.4475" stop-color="#F5845C" stop-opacity="0.5525"/>
<stop offset="0.5714" stop-color="#F37244" stop-opacity="0.4286"/>
<stop offset="0.7006" stop-color="#F26432" stop-opacity="0.2994"/>
<stop offset="0.8385" stop-color="#F15D27" stop-opacity="0.1615"/>
<stop offset="1" stop-color="#F15A24" stop-opacity="0"/>
</linearGradient>
</defs>
</svg>
